<svg xmlns="http://www.w3.org/2000/svg" width="16" height="16" viewBox="0 0 91 94">
<g>
<path d="M11.073,63.127c3.313-6.224,8.636-16.205,8.997-16.752c0.525-0.797,1.154-1.724,2.94-3.299c1.786-1.576,4.451-4.308,4.451-4.308s-5.769,0.144-5.816-3.991c-0.016-1.37,1.367-5.963,3.783-10.725c2.416-4.763,11.729-14.006,11.729-14.006s-7.528,4.247-9.695,5.508c-2.166,1.26-12.854,8.613-14.01,16.387c-1.155,7.772-4.996,36.106-4.996,36.106c0,0.001,3.877,7.506,12.069,13.809c8.193,6.303,23.95,6.197,23.95,6.197l1.991-1.577c-2.739-0.423-15.545-5.674-21.424-9.978C19.818,72.674,12.617,64.833,11.073,63.127z"/>
<path d="M81.392,63.758c-0.508-0.897-2.702-1.154-5.194-0.695c-2.492,0.458-2.94,1.882-3.186,2.442s0.595,2.556,1.681,3.291s1.365,0.91,2.416,0.876c1.051-0.035,1.52-0.376,1.753-0.942c0.305-0.74-1.094-1.374-1.103-1.864c-0.01-0.47,1.499-0.043,1.864,0.315c0.365,0.357,0.93,1.246,0.21,2.547c-0.562,1.015-2.907,4.159-4.65,5.861c-1.506,1.471-4.973,3.676-8.475,3.711c-3.501,0.036-4.621-0.21-7.737-1.015c-2.304-0.596-7.402-3.925-9.595-5.183c-0.772-0.443-0.451,0.2-0.215,0.498c1.278,1.606,6.201,5.197,11.239,6.841c3.927,1.281,9.243,0.604,11.712-0.524c2.131-0.976,3.812-2.455,5.783-4.622c2.367-2.602,4.615-6.089,4.616-7.773C82.513,65.838,81.941,64.729,81.392,63.758z"/>
<path d="M69.474,46.562c-0.104,0.84,0.525,3.389,0.525,3.389s0.21-0.343,0.473-1.184c0.263-0.84,0.998-1.785,0.998-1.785s0,0-0.735-0.42S69.474,46.562,69.474,46.562z"/>
<path d="M73.362,11.478c0,0-7.773,6.197-8.509,8.508c-0.734,2.312,0.946,6.514,2.206,8.299c1.261,1.785,1.959,4.097,1.959,4.097s5.079-9.769,5.604-14.392C75.148,13.369,74.833,11.268,73.362,11.478z"/>
<path d="M25.778,33.957c0,0,2.94,0.735,4.832,0c1.891-0.734,2.626-6.092,3.886-7.878c1.262-1.786,3.992-9.349,1.892-9.559c0,0-6.198,6.197-8.089,9.559S25.778,33.957,25.778,33.957z"/>
<path d="M57.956,51.148c0,0-0.63-1.119-1.399-1.891c-0.77-0.77-3.012-2.17-3.012-2.17s-0.42,1.346-1.33,1.346s-1.506-0.82-1.506-0.82s-0.596-0.071-1.786,0.35c-1.19,0.42-2.696,1.295-2.696,1.295s2.731,2.767,5.322,3.432C54.139,53.355,57.956,51.148,57.956,51.148z"/>
<path d="M62.823,23.502c0,0-2.522-4.423,6.944-12.039c4.121-3.314,8.285-5.572,8.285-5.572s-2.73-0.315-5.042,1.051c-2.311,1.365-7.22,4.937-8.337,5.986c-1.116,1.051-6.158,0.631-8.784,4.623c0,0,1.771,0.817,3.081,1.75C60.281,20.232,62.823,23.502,62.823,23.502z"/>
</g>
</svg>
